<?xml version="1.0" encoding="UTF-8" standalone="no"?>
<svg
   xmlns:dc="http://purl.org/dc/elements/1.1/"
   xmlns:cc="http://creativecommons.org/ns#"
   xmlns:rdf="http://www.w3.org/1999/02/22-rdf-syntax-ns#"
   xmlns:svg="http://www.w3.org/2000/svg"
   xmlns="http://www.w3.org/2000/svg"
   xmlns:sodipodi="http://sodipodi.sourceforge.net/DTD/sodipodi-0.dtd"
   xmlns:inkscape="http://www.inkscape.org/namespaces/inkscape"
   inkscape:export-ydpi="96"
   inkscape:export-xdpi="96"
   inkscape:export-filename="C:\Users\brandon\Downloads\simple-gesture-show\icon.png"
   width="32"
   height="32"
   viewBox="0 0 8.4666665 8.4666669"
   version="1.1"
   id="svg8"
   inkscape:version="1.0 (4035a4fb49, 2020-05-01)"
   sodipodi:docname="icon.svg">
  <defs
     id="defs2" />
  <sodipodi:namedview
     id="base"
     pagecolor="#ffffff"
     bordercolor="#666666"
     borderopacity="1.0"
     inkscape:pageopacity="0.0"
     inkscape:pageshadow="2"
     inkscape:zoom="16"
     inkscape:cx="1.608368"
     inkscape:cy="16.582224"
     inkscape:document-units="px"
     inkscape:current-layer="layer1"
     inkscape:document-rotation="0"
     showgrid="false"
     units="px"
     inkscape:window-width="1920"
     inkscape:window-height="1017"
     inkscape:window-x="-8"
     inkscape:window-y="1072"
     inkscape:window-maximized="1" />
  <metadata
     id="metadata5">
    <rdf:RDF>
      <cc:Work
         rdf:about="">
        <dc:format>image/svg+xml</dc:format>
        <dc:type
           rdf:resource="http://purl.org/dc/dcmitype/StillImage" />
        <dc:title></dc:title>
      </cc:Work>
    </rdf:RDF>
  </metadata>
  <g
     inkscape:label="Layer 1"
     inkscape:groupmode="layer"
     id="layer1">
    <path
       id="path1404"
       style="fill:#00ff00;fill-opacity:1;fill-rule:evenodd;stroke:#000000;stroke-width:0.0440065"
       d="M 4.1962624,0.80601724 C 2.7889495,0.77778257 1.4006141,1.5108906 0.75043443,2.8484668 -0.04489688,4.4846549 0.57923638,6.571315 2.251629,7.3678659 3.7011599,8.0582696 5.5446915,7.5003386 6.2346722,6.0145132 L 6.575138,6.2110049 7.6149288,6.811311 C 8.6247097,4.794987 7.8659754,2.2120177 5.8139251,1.1983133 5.3005321,0.94469939 4.7469501,0.8170656 4.1962624,0.80601724 Z M 4.0059591,2.9855643 c 0.2347652,-0.00216 0.4721088,0.044505 0.693051,0.1437157 0.9440737,0.4239264 1.3013683,1.5869174 0.8754462,2.504111 L 5.5452315,5.6165441 4.938221,5.2661077 c 9.2e-6,-2.54e-5 -8.8e-6,-6.03e-5 0,-8.58e-5 C 5.1401747,4.7078472 4.8959405,4.0072109 4.2956256,3.8279178 3.9043481,3.7110571 3.4050462,3.8984817 3.3251141,4.3348771 c -0.041914,0.2288356 0.096866,0.5538082 0.3733002,0.5272447 0.08107,-0.00779 0.2525147,-0.1426517 0.1508497,-0.222622 -2.97e-5,-2.38e-5 -5.54e-5,-6.25e-5 -8.59e-5,-8.58e-5 -0.00438,-0.00389 -0.00962,-0.00755 -0.015729,-0.011087 L 4.6344582,5.090761 C 4.4325048,5.6486644 3.7686376,5.8690516 3.2396753,5.6565997 2.5556176,5.3818552 2.290573,4.5561035 2.5720671,3.9001204 2.8227565,3.3159228 3.4060042,2.9910921 4.0059591,2.985565 Z" />
  </g>
</svg>
